<svg width="420" height="279" fill="none" xmlns="http://www.w3.org/2000/svg"><path d="M316 163c0 42.465-23.736 79.36-58.614 98.028C241.919 269.307 224.261 274 205.5 274c-18.761 0-36.419-4.693-51.886-12.972C118.736 242.36 95 205.465 95 163c0-61.32 49.489-111 110.5-111S316 101.68 316 163z" stroke="#B4CF66" stroke-opacity=".18" stroke-width="8"/><circle cx="205.5" cy="163.5" r="81.5" stroke="#B4CF66" stroke-opacity=".18" stroke-width="16"/><circle cx="205.5" cy="163.5" r="49.5" fill="#B4CF66" fill-opacity=".18"/><path d="M133.326 277C95.277 253.049 70 210.721 70 162.5c0-48.221 25.277-90.55 63.326-114.5m144.348 229C315.723 253.049 341 210.721 341 162.5c0-48.221-25.277-90.55-63.326-114.5" stroke="#B4CF66" stroke-opacity=".18" stroke-width="2"/><path d="M102.5 278C70.892 249.626 51 208.393 51 162.5S70.892 75.374 102.5 47m206 231c31.608-28.374 51.5-69.607 51.5-115.5S340.108 75.374 308.5 47" stroke="#B4CF66" stroke-opacity=".18"/><path d="M159.5 108V45H152V26l54-24 54 24v19h-7v63" stroke="#44803F" stroke-width="3"/><path d="M158.5 108H171V54h70v54h13" stroke="#44803F" stroke-width="3"/><path stroke="#FF5A33" stroke-width="3" d="M179.5 73.5h17v34h-17z"/><path stroke="#44803F" stroke-width="3" d="M168.5 40.5h13v5h-13zm21 0h13v5h-13zm20 0h13v5h-13zm21 0h13v5h-13z"/><path stroke="#FF5A33" stroke-width="3" d="M179.5 85.5h35v22h-35z"/><path stroke="#FF5A33" stroke-width="3" d="M179.5 97.5h53v10h-53z"/><circle cx="103.5" cy="218.5" r="9.5" stroke="#44803F" stroke-width="3"/><circle cx="79.5" cy="218.5" r="9.5" stroke="#44803F" stroke-width="3"/><path d="M143 150h1.5v-1.5H143v1.5zm0 63v1.5h1.5V213H143zM3 151.5h140v-3H3v3zm138.5-1.5v63h3v-63h-3zm1.5 61.5h-4.272v3H143v-3zm-26.728 0h-1.544v3h1.544v-3zm-24 0h-1.544v3h1.544v-3zm-24 0H32v3h36.272v-3z" fill="#44803F"/><circle cx="127.5" cy="218.5" r="9.5" stroke="#44803F" stroke-width="3"/><circle cx="103.5" cy="218.5" r="5.5" stroke="#44803F" stroke-width="3"/><circle cx="79.5" cy="218.5" r="5.5" stroke="#44803F" stroke-width="3"/><circle cx="127.5" cy="218.5" r="5.5" stroke="#44803F" stroke-width="3"/><path fill="#F4F4F4" d="M141 152h4v59h-4z"/><path stroke="#FF5A33" stroke-width="3" d="M137.5 158.5h-20v42h20z"/><path stroke="#FF5A33" stroke-width="3" d="M137.5 171.5h-42v29h42z"/><path stroke="#FF5A33" stroke-width="3" d="M137.5 186.5h-63v14h63z"/><circle cx="9.5" cy="9.5" r="9.5" transform="matrix(-1 0 0 1 318 209)" stroke="#44803F" stroke-width="3"/><circle cx="9.5" cy="9.5" r="9.5" transform="matrix(-1 0 0 1 342 209)" stroke="#44803F" stroke-width="3"/><path d="M269 150h-1.5v-1.5h1.5v1.5zm0 63v1.5h-1.5V213h1.5zm140-61.5H269v-3h140v3zM270.5 150v63h-3v-63h3zm-1.5 61.5h4.272v3H269v-3zm26.728 0h1.544v3h-1.544v-3zm24 0h1.544v3h-1.544v-3zm24 0H380v3h-36.272v-3z" fill="#44803F"/><circle cx="9.5" cy="9.5" r="9.5" transform="matrix(-1 0 0 1 294 209)" stroke="#44803F" stroke-width="3"/><circle cx="5.5" cy="5.5" r="5.5" transform="matrix(-1 0 0 1 314 213)" stroke="#44803F" stroke-width="3"/><circle cx="5.5" cy="5.5" r="5.5" transform="matrix(-1 0 0 1 338 213)" stroke="#44803F" stroke-width="3"/><circle cx="5.5" cy="5.5" r="5.5" transform="matrix(-1 0 0 1 290 213)" stroke="#44803F" stroke-width="3"/><path fill="#F4F4F4" d="M271 152h-4v59h4z"/><path stroke="#FF5A33" stroke-width="3" d="M274.5 158.5h20v42h-20z"/><path stroke="#FF5A33" stroke-width="3" d="M274.5 171.5h42v29h-42z"/><path stroke="#FF5A33" stroke-width="3" d="M274.5 186.5h63v14h-63z"/><path d="M109.564 137.755a.5.5 0 00.872.49l-.872-.49zM147 102l-5.773-.088 2.81 5.043L147 102zm-34.347 32.517a.5.5 0 00-.848-.531l.848.531zm4.161-7.727a.5.5 0 00.793.61l-.793-.61zm6.403-6.003a.5.5 0 10-.731-.682l.731.682zm5.552-6.798a.5.5 0 10.662.749l-.662-.749zm7.424-4.679a.5.5 0 00-.587-.809l.587.809zm6.743-5.618a.5.5 0 00.508.862l-.508-.862zm-32.5 34.553a89.875 89.875 0 012.217-3.728l-.848-.531a91.187 91.187 0 00-2.241 3.769l.872.49zm7.171-10.845a91.013 91.013 0 015.61-6.613l-.731-.682a92.076 92.076 0 00-5.672 6.685l.793.61zm11.824-12.662a91.024 91.024 0 016.762-5.428l-.587-.809a91.699 91.699 0 00-6.837 5.488l.662.749zm-20.303 22.772a1 1 0 001.744.98l-1.744-.98zM147 102l-11.546-.176 5.621 10.087L147 102zm-33.924 32.783a1 1 0 00-1.694-1.063l1.694 1.063zm3.342-8.298a1 1 0 001.585 1.22l-1.585-1.22zm7.164-5.357a1 1 0 10-1.461-1.365l1.461 1.365zm4.855-7.513a1 1 0 001.325 1.498l-1.325-1.498zm8.05-3.901a1 1 0 00-1.175-1.618l1.175 1.618zm6.196-6.453a1 1 0 101.015 1.723l-1.015-1.723zm-31.811 35.229a90.635 90.635 0 012.204-3.707l-1.694-1.063a92.216 92.216 0 00-2.254 3.79l1.744.98zm7.131-10.785a90.734 90.734 0 015.579-6.577l-1.461-1.365a92.624 92.624 0 00-5.703 6.722l1.585 1.22zm11.759-12.592a90.501 90.501 0 016.725-5.399l-1.175-1.618a92.676 92.676 0 00-6.875 5.519l1.325 1.498zm132.471-10.556a.502.502 0 00-.466.886l.466-.886zM299 141l-.074-5.773-4.963 2.951L299 141zm-33.444-33.446a.5.5 0 10.508-.862l-.508.862zm7.838 3.947a.5.5 0 10-.587.809l.587-.809zm6.175 6.237a.5.5 0 10.662-.749l-.662.749zm6.945 5.367a.5.5 0 00-.731.682l.731-.682zm4.879 7.295a.5.5 0 10.793-.61l-.793.61zm5.802 6.586a.5.5 0 00-.848.531l.848-.531zm-35.428-31.543a87.374 87.374 0 013.789 2.111l.508-.862a92.201 92.201 0 00-3.831-2.135l-.466.886zm11.04 6.867a91.024 91.024 0 016.762 5.428l.662-.749a91.699 91.699 0 00-6.837-5.488l-.587.809zm12.976 11.477a91.013 91.013 0 015.61 6.613l.793-.61a92.076 92.076 0 00-5.672-6.685l-.731.682zm-23.317-19.672a1.001 1.001 0 00-.932 1.77l.932-1.77zM299 141l-.149-11.546-9.924 5.902L299 141zm-33.698-33.016a.999.999 0 101.015-1.723l-1.015 1.723zm8.386 3.112a1 1 0 00-1.175 1.618l1.175-1.618zm5.55 7.017a.999.999 0 101.325-1.498l-1.325 1.498zm7.641 4.65a1 1 0 00-1.461 1.365l1.461-1.365zm4.118 7.942a1 1 0 101.585-1.22l-1.585 1.22zm6.621 6.015a1 1 0 00-1.694 1.063l1.694-1.063zm-36.084-30.835c1.275.67 2.531 1.37 3.768 2.099l1.015-1.723a92.008 92.008 0 00-3.851-2.146l-.932 1.77zm10.979 6.829a90.501 90.501 0 016.725 5.399l1.325-1.498a92.676 92.676 0 00-6.875-5.519l-1.175 1.618zm12.905 11.414a90.734 90.734 0 015.579 6.577l1.585-1.22a92.624 92.624 0 00-5.703-6.722l-1.461 1.365z" fill="#B1B0BB"/><path d="M149 179l5 2.887v-5.774L149 179zm114 0l-5-2.887v5.774l5-2.887zm-109.929.5a.5.5 0 100-1v1zm8.143-1a.5.5 0 000 1v-1zm8.143 1a.5.5 0 000-1v1zm8.143-1a.5.5 0 000 1v-1zm8.143 1a.5.5 0 000-1v1zm8.143-1a.5.5 0 000 1v-1zm8.143 1a.5.5 0 000-1v1zm8.142-1a.5.5 0 000 1v-1zm8.143 1a.5.5 0 000-1v1zm8.143-1a.5.5 0 000 1v-1zm8.143 1a.5.5 0 000-1v1zm8.143-1a.5.5 0 000 1v-1zm8.143 1a.5.5 0 000-1v1zm8.143-1a.5.5 0 100 1v-1zm-97.715 1h8.143v-1h-8.143v1zm16.286 0h8.143v-1H177.5v1zm16.286 0h8.143v-1h-8.143v1zm16.285 0h8.143v-1h-8.143v1zm16.286 0h8.143v-1h-8.143v1zm16.286 0h8.143v-1h-8.143v1zM149 179l10 5.774v-11.548L149 179zm114 0l-10-5.774v11.548L263 179zm-109.929 1a1 1 0 100-2v2zm8.143-2a1 1 0 000 2v-2zm8.143 2a1 1 0 000-2v2zm8.143-2a1 1 0 000 2v-2zm8.143 2a1 1 0 000-2v2zm8.143-2a1 1 0 100 2v-2zm8.143 2a1 1 0 000-2v2zm8.142-2a1 1 0 000 2v-2zm8.143 2a1 1 0 100-2v2zm8.143-2a1 1 0 000 2v-2zm8.143 2a1 1 0 000-2v2zm8.143-2a1 1 0 000 2v-2zm8.143 2a1 1 0 000-2v2zm8.143-2a1 1 0 100 2v-2zm-97.715 2h8.143v-2h-8.143v2zm16.286 0h8.143v-2H177.5v2zm16.286 0h8.143v-2h-8.143v2zm16.285 0h8.143v-2h-8.143v2zm16.286 0h8.143v-2h-8.143v2zm16.286 0h8.143v-2h-8.143v2z" fill="#FF5A33"/><path d="M14.85 82.2h-3.822V92h1.4v-2.968h2.422c2.548 0 4.088-1.288 4.088-3.416S17.398 82.2 14.85 82.2zm-.042 5.614h-2.38v-4.396h2.38c1.792 0 2.73.798 2.73 2.198s-.938 2.198-2.73 2.198zm8.431-3.304c-1.19 0-2.296.336-3.066.952l.56 1.008c.574-.49 1.47-.798 2.352-.798 1.33 0 1.988.658 1.988 1.792v.266h-2.128c-2.212 0-2.982.98-2.982 2.17 0 1.288 1.064 2.184 2.744 2.184 1.162 0 1.988-.392 2.436-1.064V92h1.274v-4.48c0-2.03-1.148-3.01-3.178-3.01zm-.308 6.538c-1.022 0-1.638-.462-1.638-1.204 0-.63.378-1.148 1.708-1.148h2.072v1.036c-.336.854-1.134 1.316-2.142 1.316zm9.801-2.912c.812-.294 1.344-.896 1.344-1.638 0-1.204-1.33-2.016-3.136-2.016-.952 0-1.876.196-2.842.686l.364 1.036c.812-.378 1.582-.574 2.338-.574 1.134 0 1.89.392 1.89 1.064 0 .63-.63.994-1.624.994h-1.26v.966h1.358c1.092 0 1.736.392 1.736 1.078 0 .756-.826 1.218-2.086 1.218-.91 0-1.89-.252-2.604-.714l-.406 1.022c.826.532 1.918.84 3.024.84 1.974 0 3.458-.91 3.458-2.254 0-.854-.56-1.456-1.554-1.708zm10.891-3.556l-2.996 5.012-2.912-5.012H36.33V92h1.232v-5.432l2.744 4.592h.588l2.772-4.578V92h1.218v-7.42h-1.26zm10.582 3.752c0-2.282-1.526-3.822-3.668-3.822-2.142 0-3.724 1.582-3.724 3.78 0 2.212 1.596 3.794 3.99 3.794 1.232 0 2.254-.42 2.926-1.204l-.742-.868c-.546.602-1.274.896-2.142.896-1.47 0-2.52-.868-2.688-2.17h6.02c.014-.126.028-.294.028-.406zm-3.668-2.688c1.302 0 2.24.882 2.38 2.128h-4.76c.14-1.26 1.092-2.128 2.38-2.128zm16.323 5.18V84.58h-1.344v6.244h-3.262V84.58H60.91v6.244h-3.276V84.58H56.29V92h10.416v1.582h1.26v-2.758H66.86zm9.316-2.492c0-2.282-1.526-3.822-3.668-3.822-2.142 0-3.724 1.582-3.724 3.78 0 2.212 1.596 3.794 3.99 3.794 1.232 0 2.254-.42 2.926-1.204l-.742-.868c-.546.602-1.274.896-2.142.896-1.47 0-2.52-.868-2.688-2.17h6.02c.014-.126.028-.294.028-.406zm-3.668-2.688c1.302 0 2.24.882 2.38 2.128h-4.76c.14-1.26 1.092-2.128 2.38-2.128zM78.261 92h1.344v-3.108h4.228V92h1.344v-7.42h-1.344v3.15h-4.228v-3.15h-1.344V92zm9.53 0h1.231l4.536-5.404V92h1.344v-7.42h-1.218l-4.55 5.404V84.58H87.79V92zm16.426-3.668c0-2.282-1.526-3.822-3.668-3.822-2.142 0-3.724 1.582-3.724 3.78 0 2.212 1.596 3.794 3.99 3.794 1.232 0 2.254-.42 2.926-1.204l-.742-.868c-.546.602-1.274.896-2.142.896-1.47 0-2.52-.868-2.688-2.17h6.02c.014-.126.028-.294.028-.406zm-3.668-2.688c1.302 0 2.24.882 2.38 2.128h-4.76c.14-1.26 1.092-2.128 2.38-2.128zM33.103 110h1.344v-3.108h4.228V110h1.344v-7.42h-1.344v3.15h-4.228v-3.15h-1.344V110zm12.175-7.49c-1.19 0-2.296.336-3.066.952l.56 1.008c.574-.49 1.47-.798 2.352-.798 1.33 0 1.988.658 1.988 1.792v.266h-2.128c-2.212 0-2.982.98-2.982 2.17 0 1.288 1.064 2.184 2.744 2.184 1.162 0 1.988-.392 2.436-1.064v.98h1.274v-4.48c0-2.03-1.148-3.01-3.178-3.01zm-.308 6.538c-1.022 0-1.638-.462-1.638-1.204 0-.63.378-1.148 1.708-1.148h2.072v1.036c-.336.854-1.134 1.316-2.142 1.316zm12.9 1.036c1.33 0 2.436-.56 3.024-1.596l-1.022-.644c-.476.728-1.204 1.064-2.016 1.064-1.456 0-2.548-1.008-2.548-2.618 0-1.582 1.092-2.604 2.548-2.604.812 0 1.54.336 2.016 1.064l1.022-.658c-.588-1.036-1.694-1.582-3.024-1.582-2.282 0-3.92 1.568-3.92 3.78 0 2.212 1.638 3.794 3.92 3.794zM68.01 110h1.582l-3.01-3.85 2.814-3.57h-1.442l-2.408 3.136h-1.568v-3.136h-1.344V110h1.344v-3.136h1.54L68.01 110zm3.663-7.42l-.126 2.744c-.098 1.75-.154 3.57-1.358 3.57a1.57 1.57 0 01-.336-.042l-.084 1.134c.308.084.574.126.826.126 1.68 0 2.03-2.086 2.156-4.704l.084-1.652h3.192V110h1.344v-7.42h-5.698zm10.943-.07c-1.19 0-2.296.336-3.066.952l.56 1.008c.574-.49 1.47-.798 2.352-.798 1.33 0 1.988.658 1.988 1.792v.266h-2.128c-2.212 0-2.982.98-2.982 2.17 0 1.288 1.064 2.184 2.744 2.184 1.162 0 1.988-.392 2.436-1.064v.98h1.274v-4.48c0-2.03-1.148-3.01-3.178-3.01zm-.308 6.538c-1.022 0-1.638-.462-1.638-1.204 0-.63.378-1.148 1.708-1.148h2.072v1.036c-.336.854-1.134 1.316-2.142 1.316zm12.318-.224v-6.244h-5.754l-.112 2.506c-.098 1.876-.28 3.682-1.344 3.738h-.392v2.898h1.274V110H94.5v1.722h1.26v-2.898h-1.134zm-4.634-3.64l.07-1.428h3.22v5.068h-4.158c.672-.588.812-2.1.868-3.64zm14.225 1.148c0-2.282-1.526-3.822-3.668-3.822-2.142 0-3.724 1.582-3.724 3.78 0 2.212 1.596 3.794 3.99 3.794 1.232 0 2.254-.42 2.926-1.204l-.742-.868c-.546.602-1.274.896-2.142.896-1.47 0-2.52-.868-2.688-2.17h6.02c.014-.126.028-.294.028-.406zm-3.668-2.688c1.302 0 2.24.882 2.38 2.128h-4.76c.14-1.26 1.092-2.128 2.38-2.128zM7.735 251.918c.952-.364 1.526-1.12 1.526-2.198 0-1.638-1.288-2.52-3.416-2.52H1.631v9.8h4.48c2.408 0 3.64-.994 3.64-2.674 0-1.274-.7-2.086-2.016-2.408zm-4.718-3.612h2.73c1.344 0 2.1.56 2.1 1.61s-.756 1.596-2.1 1.596h-2.73v-3.206zm3.066 7.588H3.017v-3.318h3.066c1.47 0 2.254.504 2.254 1.638 0 1.148-.784 1.68-2.254 1.68zM18.026 257l-2.954-3.794 2.8-3.626h-1.47l-2.03 2.674-2.043-2.674H10.83l2.786 3.626L10.69 257h1.498l2.17-2.842L16.5 257h1.526zm4.347.084c2.226 0 3.85-1.582 3.85-3.794 0-2.212-1.624-3.78-3.85-3.78s-3.864 1.568-3.864 3.78c0 2.212 1.638 3.794 3.864 3.794zm0-1.176c-1.428 0-2.506-1.036-2.506-2.618 0-1.582 1.078-2.604 2.506-2.604 1.428 0 2.492 1.022 2.492 2.604s-1.064 2.618-2.492 2.618zm12.148-.084v-6.244h-5.754l-.112 2.506c-.098 1.876-.28 3.682-1.344 3.738h-.392v2.898h1.274V257h6.202v1.722h1.26v-2.898H34.52zm-4.634-3.64l.07-1.428h3.22v5.068h-4.158c.672-.588.812-2.1.868-3.64zm10.22-2.604c-1.987 0-3.261.882-3.261 2.604 0 1.176.63 1.946 1.736 2.282L36.776 257h1.441l1.625-2.352h2.308V257h1.204v-7.42h-3.247zm-1.89 2.646c0-1.036.7-1.47 1.933-1.47h2.002v2.926h-2.059c-1.246 0-1.876-.462-1.876-1.456zm18.33 3.598v-6.244h-1.343v6.244h-3.262v-6.244h-1.344v6.244h-3.276v-6.244h-1.344V257h10.416v1.582h1.26v-2.758h-1.106zm5.257-6.314c-1.19 0-2.297.336-3.067.952l.56 1.008c.575-.49 1.47-.798 2.353-.798 1.33 0 1.988.658 1.988 1.792v.266H61.51c-2.212 0-2.982.98-2.982 2.17 0 1.288 1.064 2.184 2.744 2.184 1.162 0 1.988-.392 2.436-1.064v.98h1.273v-4.48c0-2.03-1.147-3.01-3.177-3.01zm-.309 6.538c-1.021 0-1.637-.462-1.637-1.204 0-.63.378-1.148 1.708-1.148h2.072v1.036c-.337.854-1.134 1.316-2.142 1.316zm8.609-6.468c-1.988 0-3.262.882-3.262 2.604 0 1.176.63 1.946 1.736 2.282L66.772 257h1.442l1.624-2.352h2.31V257h1.204v-7.42h-3.248zm-1.89 2.646c0-1.036.7-1.47 1.932-1.47h2.002v2.926H70.09c-1.246 0-1.876-.462-1.876-1.456zm11.52-2.646V257h1.344v-6.244h4.186V257h1.344v-7.42h-6.874zm12.652 7.504c2.226 0 3.85-1.582 3.85-3.794 0-2.212-1.624-3.78-3.85-3.78s-3.864 1.568-3.864 3.78c0 2.212 1.638 3.794 3.864 3.794zm0-1.176c-1.428 0-2.506-1.036-2.506-2.618 0-1.582 1.078-2.604 2.506-2.604 1.428 0 2.492 1.022 2.492 2.604s-1.064 2.618-2.492 2.618zm9.025 1.176c1.33 0 2.436-.56 3.024-1.596l-1.022-.644c-.476.728-1.204 1.064-2.016 1.064-1.456 0-2.548-1.008-2.548-2.618 0-1.582 1.092-2.604 2.548-2.604.812 0 1.54.336 2.016 1.064l1.022-.658c-.588-1.036-1.694-1.582-3.024-1.582-2.282 0-3.92 1.568-3.92 3.78 0 2.212 1.638 3.794 3.92 3.794zm10.198-7.504h-6.776v1.176h2.716V257h1.344v-6.244h2.716v-1.176zm4.021-.07c-1.19 0-2.296.336-3.066.952l.56 1.008c.574-.49 1.47-.798 2.352-.798 1.33 0 1.988.658 1.988 1.792v.266h-2.128c-2.212 0-2.982.98-2.982 2.17 0 1.288 1.064 2.184 2.744 2.184 1.162 0 1.988-.392 2.436-1.064v.98h1.274v-4.48c0-2.03-1.148-3.01-3.178-3.01zm-.308 6.538c-1.022 0-1.638-.462-1.638-1.204 0-.63.378-1.148 1.708-1.148h2.072v1.036c-.336.854-1.134 1.316-2.142 1.316zm10.96-2.898c.742-.294 1.19-.868 1.19-1.666 0-1.218-1.05-1.904-2.8-1.904h-3.444V257h3.57c1.974 0 2.926-.756 2.926-2.044 0-.938-.462-1.554-1.442-1.806zm-3.738-2.534h2.016c1.022 0 1.568.35 1.568 1.064 0 .714-.546 1.092-1.568 1.092h-2.016v-2.156zm2.156 5.348h-2.156v-2.226h2.24c1.106 0 1.596.364 1.596 1.134 0 .756-.574 1.092-1.68 1.092zM135.203 257h1.582l-3.01-3.85 2.814-3.57h-1.442l-2.408 3.136h-1.568v-3.136h-1.344V257h1.344v-3.136h1.54l2.492 3.136zm5.501-7.49c-1.19 0-2.296.336-3.066.952l.56 1.008c.574-.49 1.47-.798 2.352-.798 1.33 0 1.988.658 1.988 1.792v.266h-2.128c-2.212 0-2.982.98-2.982 2.17 0 1.288 1.064 2.184 2.744 2.184 1.162 0 1.988-.392 2.436-1.064v.98h1.274v-4.48c0-2.03-1.148-3.01-3.178-3.01zm-.308 6.538c-1.022 0-1.638-.462-1.638-1.204 0-.63.378-1.148 1.708-1.148h2.072v1.036c-.336.854-1.134 1.316-2.142 1.316zm127.403.952h1.288l5.81-7.546V257h1.372v-9.8h-1.288l-5.796 7.56v-7.56h-1.386v9.8zm14.536.084c1.33 0 2.436-.56 3.024-1.596l-1.022-.644c-.476.728-1.204 1.064-2.016 1.064-1.456 0-2.548-1.008-2.548-2.618 0-1.582 1.092-2.604 2.548-2.604.812 0 1.54.336 2.016 1.064l1.022-.658c-.588-1.036-1.694-1.582-3.024-1.582-2.282 0-3.92 1.568-3.92 3.78 0 2.212 1.638 3.794 3.92 3.794zm10.691-.084l-2.954-3.794 2.8-3.626h-1.47l-2.03 2.674-2.044-2.674h-1.498l2.786 3.626L285.69 257h1.498l2.17-2.842L291.5 257h1.526zm4.347.084c2.226 0 3.85-1.582 3.85-3.794 0-2.212-1.624-3.78-3.85-3.78s-3.864 1.568-3.864 3.78c0 2.212 1.638 3.794 3.864 3.794zm0-1.176c-1.428 0-2.506-1.036-2.506-2.618 0-1.582 1.078-2.604 2.506-2.604 1.428 0 2.492 1.022 2.492 2.604s-1.064 2.618-2.492 2.618zm12.148-.084v-6.244h-5.754l-.112 2.506c-.098 1.876-.28 3.682-1.344 3.738h-.392v2.898h1.274V257h6.202v1.722h1.26v-2.898h-1.134zm-4.634-3.64l.07-1.428h3.22v5.068h-4.158c.672-.588.812-2.1.868-3.64zm10.221-2.604c-1.988 0-3.262.882-3.262 2.604 0 1.176.63 1.946 1.736 2.282L311.776 257h1.442l1.624-2.352h2.31V257h1.204v-7.42h-3.248zm-1.89 2.646c0-1.036.7-1.47 1.932-1.47h2.002v2.926h-2.058c-1.246 0-1.876-.462-1.876-1.456zm18.33 3.598v-6.244h-1.344v6.244h-3.262v-6.244h-1.344v6.244h-3.276v-6.244h-1.344V257h10.416v1.582h1.26v-2.758h-1.106zm5.255-6.314c-1.19 0-2.296.336-3.066.952l.56 1.008c.574-.49 1.47-.798 2.352-.798 1.33 0 1.988.658 1.988 1.792v.266h-2.128c-2.212 0-2.982.98-2.982 2.17 0 1.288 1.064 2.184 2.744 2.184 1.162 0 1.988-.392 2.436-1.064v.98h1.274v-4.48c0-2.03-1.148-3.01-3.178-3.01zm-.308 6.538c-1.022 0-1.638-.462-1.638-1.204 0-.63.378-1.148 1.708-1.148h2.072v1.036c-.336.854-1.134 1.316-2.142 1.316zm8.609-6.468c-1.988 0-3.262.882-3.262 2.604 0 1.176.63 1.946 1.736 2.282L341.772 257h1.442l1.624-2.352h2.31V257h1.204v-7.42h-3.248zm-1.89 2.646c0-1.036.7-1.47 1.932-1.47h2.002v2.926h-2.058c-1.246 0-1.876-.462-1.876-1.456zm11.52-2.646V257h1.344v-6.244h4.186V257h1.344v-7.42h-6.874zm12.652 7.504c2.226 0 3.85-1.582 3.85-3.794 0-2.212-1.624-3.78-3.85-3.78s-3.864 1.568-3.864 3.78c0 2.212 1.638 3.794 3.864 3.794zm0-1.176c-1.428 0-2.506-1.036-2.506-2.618 0-1.582 1.078-2.604 2.506-2.604 1.428 0 2.492 1.022 2.492 2.604s-1.064 2.618-2.492 2.618zm9.025 1.176c1.33 0 2.436-.56 3.024-1.596l-1.022-.644c-.476.728-1.204 1.064-2.016 1.064-1.456 0-2.548-1.008-2.548-2.618 0-1.582 1.092-2.604 2.548-2.604.812 0 1.54.336 2.016 1.064l1.022-.658c-.588-1.036-1.694-1.582-3.024-1.582-2.282 0-3.92 1.568-3.92 3.78 0 2.212 1.638 3.794 3.92 3.794zm10.198-7.504h-6.776v1.176h2.716V257h1.344v-6.244h2.716v-1.176zm4.021-.07c-1.19 0-2.296.336-3.066.952l.56 1.008c.574-.49 1.47-.798 2.352-.798 1.33 0 1.988.658 1.988 1.792v.266h-2.128c-2.212 0-2.982.98-2.982 2.17 0 1.288 1.064 2.184 2.744 2.184 1.162 0 1.988-.392 2.436-1.064v.98h1.274v-4.48c0-2.03-1.148-3.01-3.178-3.01zm-.308 6.538c-1.022 0-1.638-.462-1.638-1.204 0-.63.378-1.148 1.708-1.148h2.072v1.036c-.336.854-1.134 1.316-2.142 1.316zm10.96-2.898c.742-.294 1.19-.868 1.19-1.666 0-1.218-1.05-1.904-2.8-1.904h-3.444V257h3.57c1.974 0 2.926-.756 2.926-2.044 0-.938-.462-1.554-1.442-1.806zm-3.738-2.534h2.016c1.022 0 1.568.35 1.568 1.064 0 .714-.546 1.092-1.568 1.092h-2.016v-2.156zm2.156 5.348h-2.156v-2.226h2.24c1.106 0 1.596.364 1.596 1.134 0 .756-.574 1.092-1.68 1.092zM410.203 257h1.582l-3.01-3.85 2.814-3.57h-1.442l-2.408 3.136h-1.568v-3.136h-1.344V257h1.344v-3.136h1.54l2.492 3.136zm5.501-7.49c-1.19 0-2.296.336-3.066.952l.56 1.008c.574-.49 1.47-.798 2.352-.798 1.33 0 1.988.658 1.988 1.792v.266h-2.128c-2.212 0-2.982.98-2.982 2.17 0 1.288 1.064 2.184 2.744 2.184 1.162 0 1.988-.392 2.436-1.064v.98h1.274v-4.48c0-2.03-1.148-3.01-3.178-3.01zm-.308 6.538c-1.022 0-1.638-.462-1.638-1.204 0-.63.378-1.148 1.708-1.148h2.072v1.036c-.336.854-1.134 1.316-2.142 1.316z" fill="#757482"/><path d="M187.774 147h2.576l-3.304-5.068 3.206-4.732h-2.394l-2.576 3.962h-1.624V137.2h-2.254v9.8h2.254v-3.948h1.568l2.548 3.948zm8.086-7.644c-1.008 0-1.82.322-2.366.98v-.868h-2.086v10.248h2.184v-3.514c.56.616 1.33.91 2.268.91 2.114 0 3.752-1.512 3.752-3.878s-1.638-3.878-3.752-3.878zm-.378 5.964c-1.092 0-1.918-.784-1.918-2.086 0-1.302.826-2.086 1.918-2.086s1.918.784 1.918 2.086c0 1.302-.826 2.086-1.918 2.086zm9.189 1.792c2.394 0 4.13-1.61 4.13-3.878s-1.736-3.878-4.13-3.878-4.144 1.61-4.144 3.878 1.75 3.878 4.144 3.878zm0-1.792c-1.092 0-1.932-.784-1.932-2.086 0-1.302.84-2.086 1.932-2.086s1.918.784 1.918 2.086c0 1.302-.826 2.086-1.918 2.086zm9.216 1.792c1.582 0 2.828-.7 3.374-1.904l-1.694-.924c-.406.728-1.008 1.036-1.694 1.036-1.106 0-1.974-.77-1.974-2.086 0-1.316.868-2.086 1.974-2.086.686 0 1.288.322 1.694 1.036l1.694-.91c-.546-1.232-1.792-1.918-3.374-1.918-2.45 0-4.2 1.61-4.2 3.878s1.75 3.878 4.2 3.878zm8.189 0c1.582 0 2.828-.7 3.374-1.904l-1.694-.924c-.406.728-1.008 1.036-1.694 1.036-1.106 0-1.974-.77-1.974-2.086 0-1.316.868-2.086 1.974-2.086.686 0 1.288.322 1.694 1.036l1.694-.91c-.546-1.232-1.792-1.918-3.374-1.918-2.45 0-4.2 1.61-4.2 3.878s1.75 3.878 4.2 3.878zm4.106-3.178h3.962v-1.75h-3.962v1.75zm-39.673 19.274v-5.74h-6.566l-.098 2.604c-.084 1.638-.266 3.108-1.302 3.136h-.308v3.416h2.03V165h5.292v1.624h2.03v-3.416h-1.078zm-4.69-2.982l.042-.966h2.464v3.948h-3.178c.532-.56.63-1.708.672-2.982zm10.67 4.886c2.394 0 4.13-1.61 4.13-3.878s-1.736-3.878-4.13-3.878-4.144 1.61-4.144 3.878 1.75 3.878 4.144 3.878zm0-1.792c-1.092 0-1.932-.784-1.932-2.086 0-1.302.84-2.086 1.932-2.086s1.918.784 1.918 2.086c0 1.302-.826 2.086-1.918 2.086zm10.966 1.68h2.576l-2.814-3.92 2.632-3.612h-2.324l-2.044 2.926h-1.176v-2.926h-2.184V165h2.184v-2.856h1.134l2.016 2.856zm3.649 0h2.016l3.654-4.48V165h2.17v-7.532h-2.002l-3.668 4.48v-4.48h-2.17V165zm9.939 0h2.17v-2.814h3.276V165h2.184v-7.532h-2.184v2.94h-3.276v-2.94h-2.17V165zm15.755-7.532h-6.034V165h2.17v-5.74h3.864v-1.792z" fill="#FF5A33"/><path d="M307.908 92.112c1.526 0 2.842-.532 3.738-1.54l-.91-.882c-.756.798-1.68 1.176-2.758 1.176-2.212 0-3.85-1.596-3.85-3.766s1.638-3.766 3.85-3.766c1.078 0 2.002.364 2.758 1.162l.91-.882c-.896-1.008-2.212-1.526-3.724-1.526-2.982 0-5.194 2.114-5.194 5.012 0 2.898 2.212 5.012 5.18 5.012zm9.018-7.28c-1.246 0-2.296.546-2.926 1.498.14-1.932 1.05-2.884 2.982-3.304l3.122-.672-.196-1.232-3.388.756c-2.562.56-3.808 2.226-3.808 5.292 0 3.122 1.414 4.942 3.948 4.942 2.268 0 3.836-1.484 3.836-3.668 0-2.128-1.47-3.612-3.57-3.612zm-.238 6.16c-1.428 0-2.45-1.036-2.45-2.506 0-1.47.994-2.45 2.45-2.45 1.456 0 2.436.98 2.436 2.45 0 1.47-.994 2.506-2.436 2.506zm8.905 1.092c2.226 0 3.85-1.582 3.85-3.794 0-2.212-1.624-3.78-3.85-3.78s-3.864 1.568-3.864 3.78c0 2.212 1.638 3.794 3.864 3.794zm0-1.176c-1.428 0-2.506-1.036-2.506-2.618 0-1.582 1.078-2.604 2.506-2.604 1.428 0 2.492 1.022 2.492 2.604s-1.064 2.618-2.492 2.618zm9.725-6.398c-1.092 0-2.044.42-2.646 1.246V84.58h-1.288v10.136h1.344V90.88c.616.798 1.54 1.204 2.59 1.204 2.17 0 3.752-1.512 3.752-3.794 0-2.268-1.582-3.78-3.752-3.78zm-.112 6.398c-1.414 0-2.492-1.036-2.492-2.618 0-1.568 1.078-2.604 2.492-2.604 1.428 0 2.506 1.036 2.506 2.604 0 1.582-1.078 2.618-2.506 2.618zM346.399 92h1.582l-3.01-3.85 2.814-3.57h-1.442l-2.408 3.136h-1.568V84.58h-1.344V92h1.344v-3.136h1.54L346.399 92zm5.5-7.49c-1.19 0-2.296.336-3.066.952l.56 1.008c.574-.49 1.47-.798 2.352-.798 1.33 0 1.988.658 1.988 1.792v.266h-2.128c-2.212 0-2.982.98-2.982 2.17 0 1.288 1.064 2.184 2.744 2.184 1.162 0 1.988-.392 2.436-1.064V92h1.274v-4.48c0-2.03-1.148-3.01-3.178-3.01zm-.308 6.538c-1.022 0-1.638-.462-1.638-1.204 0-.63.378-1.148 1.708-1.148h2.072v1.036c-.336.854-1.134 1.316-2.142 1.316zm-44.271 15.088c.812-.294 1.344-.896 1.344-1.638 0-1.204-1.33-2.016-3.136-2.016-.952 0-1.876.196-2.842.686l.364 1.036c.812-.378 1.582-.574 2.338-.574 1.134 0 1.89.392 1.89 1.064 0 .63-.63.994-1.624.994h-1.26v.966h1.358c1.092 0 1.736.392 1.736 1.078 0 .756-.826 1.218-2.086 1.218-.91 0-1.89-.252-2.604-.714l-.406 1.022c.826.532 1.918.84 3.024.84 1.974 0 3.458-.91 3.458-2.254 0-.854-.56-1.456-1.554-1.708zm6.243-3.626c-1.19 0-2.296.336-3.066.952l.56 1.008c.574-.49 1.47-.798 2.352-.798 1.33 0 1.988.658 1.988 1.792v.266h-2.128c-2.212 0-2.982.98-2.982 2.17 0 1.288 1.064 2.184 2.744 2.184 1.162 0 1.988-.392 2.436-1.064v.98h1.274v-4.48c0-2.03-1.148-3.01-3.178-3.01zm-.308 6.538c-1.022 0-1.638-.462-1.638-1.204 0-.63.378-1.148 1.708-1.148h2.072v1.036c-.336.854-1.134 1.316-2.142 1.316zm11.282.952h1.582l-3.01-3.85 2.814-3.57h-1.442l-2.408 3.136h-1.568v-3.136h-1.344V110h1.344v-3.136h1.54l2.492 3.136zm5.501-7.49c-1.19 0-2.296.336-3.066.952l.56 1.008c.574-.49 1.47-.798 2.352-.798 1.33 0 1.988.658 1.988 1.792v.266h-2.128c-2.212 0-2.982.98-2.982 2.17 0 1.288 1.064 2.184 2.744 2.184 1.162 0 1.988-.392 2.436-1.064v.98h1.274v-4.48c0-2.03-1.148-3.01-3.178-3.01zm-.308 6.538c-1.022 0-1.638-.462-1.638-1.204 0-.63.378-1.148 1.708-1.148h2.072v1.036c-.336.854-1.134 1.316-2.142 1.316zm9.801-2.912c.812-.294 1.344-.896 1.344-1.638 0-1.204-1.33-2.016-3.136-2.016-.952 0-1.876.196-2.842.686l.364 1.036c.812-.378 1.582-.574 2.338-.574 1.134 0 1.89.392 1.89 1.064 0 .63-.63.994-1.624.994h-1.26v.966h1.358c1.092 0 1.736.392 1.736 1.078 0 .756-.826 1.218-2.086 1.218-.91 0-1.89-.252-2.604-.714l-.406 1.022c.826.532 1.918.84 3.024.84 1.974 0 3.458-.91 3.458-2.254 0-.854-.56-1.456-1.554-1.708zm6.775 3.948c2.226 0 3.85-1.582 3.85-3.794 0-2.212-1.624-3.78-3.85-3.78s-3.864 1.568-3.864 3.78c0 2.212 1.638 3.794 3.864 3.794zm0-1.176c-1.428 0-2.506-1.036-2.506-2.618 0-1.582 1.078-2.604 2.506-2.604 1.428 0 2.492 1.022 2.492 2.604s-1.064 2.618-2.492 2.618zm10.845-2.758c.742-.294 1.19-.868 1.19-1.666 0-1.218-1.05-1.904-2.8-1.904h-3.444V110h3.57c1.974 0 2.926-.756 2.926-2.044 0-.938-.462-1.554-1.442-1.806zm-3.738-2.534h2.016c1.022 0 1.568.35 1.568 1.064 0 .714-.546 1.092-1.568 1.092h-2.016v-2.156zm2.156 5.348h-2.156v-2.226h2.24c1.106 0 1.596.364 1.596 1.134 0 .756-.574 1.092-1.68 1.092z" fill="#757482"/></svg>