<svg width="264" height="36" fill="none" xmlns="http://www.w3.org/2000/svg"><g clip-path="url(#clip0_298_4448)"><path d="M114.578 19.639c-2.14.96-4.424 1.41-7.262 1.41-7.288 0-11.716-3.115-11.716-8.687 0-5.572 4.424-8.624 11.716-8.624 2.808 0 5.118.48 7.262 1.466V9.01c-1.476-.837-3.935-1.709-7.202-1.709-4.829 0-7.577 1.885-7.577 5.061s2.689 5.15 7.696 5.15c3.097 0 5.756-.75 7.088-1.468v3.595h-.005zm1.97 1.079V4.006h10.415c2.952 0 6.683.15 6.683 4.674 0 1.41-1.216 2.577-2.054 2.845 1.216.18 3.412 1.317 3.412 4.075 0 4.255-3.732 5.122-6.769 5.122h-11.687v-.004zm3.906-13.51v3.507h6.798c1.362 0 2.2-.511 2.2-1.736 0-1.224-.868-1.766-2.2-1.766h-6.798v-.004zm0 6.471v3.832h7.721c1.532 0 2.634-.418 2.634-1.916 0-1.497-1.098-1.916-2.634-1.916h-7.721zm16.175 7.039V4.006h16.315v3.207h-12.41v3.625h10.155v2.965h-10.155v3.713h12.41v3.206h-16.315v-.004zm24.73 0V7.513h-7.143V4.006h18.166v3.507h-7.117v13.21h-3.906v-.005zm22.591.33c-6.19 0-11.283-3.295-11.283-8.686s5.093-8.624 11.283-8.624c6.19 0 11.283 3.233 11.283 8.624s-5.033 8.686-11.283 8.686zm0-13.716c-4.135 0-7.088 1.885-7.088 5.03 0 3.145 2.948 5.123 7.088 5.123 4.139 0 7.088-1.978 7.088-5.123 0-3.145-2.953-5.03-7.088-5.03zm22.51 13.386V19.07c-.928.27-1.881.362-2.804.362-3.676 0-7.232-2.815-7.232-7.22 0-4.973 4.02-6.95 7.202-6.95.953 0 1.911.088 2.834.36V4.007h3.905v1.617c.928-.269 1.911-.361 2.863-.361 3.183 0 7.203 1.977 7.203 6.95 0 4.4-3.557 7.22-7.232 7.22-.953 0-1.911-.088-2.834-.361v1.647h-3.905zm0-4.792V8.53a7.134 7.134 0 00-2.11-.3c-2.025 0-3.731 1.26-3.731 3.982 0 2.396 1.765 4.013 3.586 4.013.753 0 1.506-.062 2.255-.3zm3.905-7.396v7.396c.753.237 1.506.3 2.285.3 1.821 0 3.586-1.617 3.586-4.014 0-2.726-1.706-3.982-3.731-3.982-.753 0-1.446.089-2.14.3zm22.506 12.518c-6.19 0-11.283-3.295-11.283-8.686s5.093-8.624 11.283-8.624c6.19 0 11.282 3.233 11.282 8.624s-5.032 8.686-11.282 8.686zm0-13.716c-4.135 0-7.088 1.885-7.088 5.03 0 3.145 2.948 5.123 7.088 5.123 4.139 0 7.088-1.978 7.088-5.123 0-3.145-2.953-5.03-7.088-5.03zm17.387 8.356v5.03h-3.905V4.006h11.193c4.859 0 6.45 3.357 6.45 5.81 0 2.454-1.591 5.872-6.45 5.872h-7.288zm0-8.145v4.612h6.42c2.719 0 3.153-1.317 3.153-2.334 0-.96-.434-2.278-3.153-2.278h-6.42zm-142.75 21.323c0 .194-.017.415-.064.64l-.621 2.99h-1.043l.622-3.053a2.48 2.48 0 00.055-.506c0-.722-.421-1.084-1.179-1.084-.897 0-1.446.454-1.672 1.533l-.646 3.106h-1.672l.17-.855h.655l.468-2.264c.332-1.617 1.293-2.405 2.804-2.405 1.327 0 2.127.7 2.127 1.898h-.004zm4.573 1.379c0-1.845 1.383-3.277 3.467-3.277 1.706 0 2.706.951 2.706 2.326 0 1.845-1.383 3.277-3.467 3.277-1.706 0-2.706-.952-2.706-2.326zm5.118-.885c0-.894-.613-1.502-1.744-1.502-1.421 0-2.31 1.066-2.31 2.325 0 .895.604 1.503 1.735 1.503 1.421 0 2.319-1.067 2.319-2.326zm10.138-1.458h-2.82l-.928 4.59h-1.042l1.131-5.449h3.846l-.187.855v.004zm9.649-.859l-1.132 5.449h-1.008l.128-.617c-.443.45-1.034.691-1.745.691-1.148 0-1.893-.647-1.893-1.797 0-.202.026-.418.073-.651l.638-3.075h1.051l-.647 3.105c-.038.18-.055.344-.055.485 0 .7.404 1.048 1.157 1.048.842 0 1.519-.45 1.736-1.502l.655-3.136h1.042zm4.276 3.202c0-1.845 1.382-3.277 3.484-3.277.97 0 1.753.317 2.149.912l-.762.617c-.306-.415-.791-.64-1.464-.64-1.446 0-2.352 1.053-2.352 2.326 0 .903.612 1.503 1.77 1.503.629 0 1.178-.203 1.608-.63l.612.638c-.548.608-1.365.881-2.301.881-1.723 0-2.749-.951-2.749-2.326l.005-.004zm14.494-1.845a3.822 3.822 0 00-1.582-.52l-.962 4.616h-1.051l.97-4.638a4.231 4.231 0 00-1.744.52l-.276-.785c.693-.414 1.663-.62 2.586-.62.987 0 1.859.224 2.532.651l-.468.78-.005-.005zm10.058-1.357l-1.132 5.449h-1.008l.127-.617c-.442.45-1.033.691-1.744.691-1.149 0-1.893-.647-1.893-1.797 0-.202.025-.418.072-.651l.638-3.075h1.051l-.647 3.105c-.038.18-.055.344-.055.485 0 .7.404 1.048 1.157 1.048.843 0 1.519-.45 1.736-1.502l.655-3.136h1.043zm7.645 2.656l1.438 2.793h-1.123l-1.179-2.304h-1.106l-.477 2.304h-1.05l1.131-5.449h1.051l-.476 2.282h1.025l2.102-2.282h1.178l-2.514 2.656zm11.567-.824c0 .203-.017.405-.063.63l-.622 2.991h-1.042l.285-1.4h-2.935l-.29 1.4h-1.033l.646-3.123c.332-1.617 1.328-2.405 2.868-2.405 1.365 0 2.191.7 2.191 1.907h-.005zm-1.267 1.37l.161-.802a2.39 2.39 0 00.056-.488c0-.732-.443-1.097-1.247-1.097-.936 0-1.51.453-1.736 1.533l-.178.854h2.944zM90.086 35.5l-7.828-25.001h-1.361L73.069 35.5h17.017z" fill="#44813F"/><path d="M80.705 5.059L67.45 35.499H39.344L78.782 5.06h1.923z" fill="#FFDB06"/><path d="M80.641.5l-48.47 35H0L78.99.5h1.651z" fill="#EB5C3B"/></g><defs><clipPath id="clip0_298_4448"><path fill="#fff" transform="translate(0 .5)" d="M0 0h264v35H0z"/></clipPath></defs></svg>