<svg width="265" height="34" fill="none" xmlns="http://www.w3.org/2000/svg"><g clip-path="url(#clip0_141_302)" fill="#fff"><path d="M114.677 18.592c-2.145.929-4.428 1.366-7.269 1.366-7.292 0-11.729-3.023-11.729-8.44 0-5.418 4.429-8.38 11.729-8.38 2.81 0 5.124.468 7.269 1.428v3.698c-1.473-.813-3.94-1.657-7.208-1.657-4.833 0-7.582 1.834-7.582 4.918 0 3.085 2.695 5.003 7.704 5.003 3.1 0 5.765-.729 7.094-1.427v3.491h-.008zm1.971 1.051V3.407h10.423c2.955 0 6.689.146 6.689 4.543 0 1.365-1.214 2.501-2.054 2.762 1.214.176 3.413 1.281 3.413 3.96 0 4.127-3.734 4.971-6.773 4.971h-11.698zm3.909-13.12v3.406h6.804c1.359 0 2.199-.49 2.199-1.688 0-1.197-.87-1.719-2.199-1.719h-6.804zm0 6.284v3.721h7.728c1.535 0 2.634-.406 2.634-1.864 0-1.458-1.099-1.865-2.634-1.865h-7.728v.008zm16.196 6.836V3.407h16.326v3.115h-12.424v3.522h10.164v2.878h-10.164v3.606h12.424v3.116h-16.326zm24.748 0V6.813h-7.147V3.408h18.181v3.407h-7.124v12.83h-3.91zm22.611.315c-6.193 0-11.294-3.2-11.294-8.44 0-5.241 5.093-8.38 11.294-8.38 6.2 0 11.293 3.139 11.293 8.38 0 5.24-5.039 8.44-11.293 8.44zm0-13.328c-4.139 0-7.094 1.834-7.094 4.888 0 3.053 2.955 4.972 7.094 4.972 4.138 0 7.093-1.918 7.093-4.972 0-3.054-2.955-4.888-7.093-4.888zm22.526 13.014V18.04c-.924.26-1.879.345-2.81.345-3.681 0-7.239-2.732-7.239-7.013 0-4.827 4.024-6.753 7.208-6.753.955 0 1.909.085 2.841.353V3.4h3.909v1.573c.924-.26 1.909-.353 2.864-.353 3.184 0 7.208 1.919 7.208 6.753 0 4.274-3.558 7.013-7.239 7.013-.954 0-1.909-.084-2.84-.345v1.604h-3.91.008zm0-4.658V7.804a7.298 7.298 0 00-2.115-.292c-2.024 0-3.734 1.22-3.734 3.868 0 2.324 1.764 3.897 3.589 3.897.756 0 1.504-.06 2.26-.291zm3.909-7.182v7.182c.756.23 1.505.291 2.291.291 1.825 0 3.589-1.572 3.589-3.897 0-2.648-1.71-3.868-3.734-3.868-.756 0-1.451.085-2.146.292zm22.527 12.154c-6.193 0-11.294-3.2-11.294-8.44 0-5.241 5.093-8.38 11.294-8.38 6.2 0 11.293 3.139 11.293 8.38 0 5.24-5.039 8.44-11.293 8.44zm0-13.328c-4.139 0-7.094 1.834-7.094 4.888 0 3.053 2.955 4.972 7.094 4.972 4.138 0 7.094-1.918 7.094-4.972 0-3.054-2.956-4.888-7.094-4.888zm17.402 8.126v4.887h-3.91V3.407h11.203c4.864 0 6.46 3.261 6.46 5.647 0 2.387-1.596 5.702-6.46 5.702h-7.293zm0-7.911v4.48h6.43c2.718 0 3.153-1.28 3.153-2.27 0-.929-.435-2.21-3.153-2.21h-6.43zm-142.877 20.71c0 .191-.015.398-.061.621l-.626 2.908h-1.046l.626-2.962a2.35 2.35 0 00.053-.49c0-.707-.42-1.052-1.183-1.052-.902 0-1.451.437-1.673 1.489l-.649 3.015h-1.672l.168-.829h.657l.465-2.202c.329-1.573 1.291-2.34 2.803-2.34 1.328 0 2.13.683 2.13 1.85l.008-.008zm4.582 1.335c0-1.796 1.382-3.185 3.466-3.185 1.703 0 2.711.921 2.711 2.264 0 1.796-1.382 3.184-3.467 3.184-1.703 0-2.71-.92-2.71-2.263zm5.116-.86c0-.867-.611-1.458-1.749-1.458-1.42 0-2.314 1.036-2.314 2.264 0 .867.604 1.458 1.741 1.458 1.421 0 2.322-1.036 2.322-2.264zm10.148-1.411h-2.825l-.932 4.465h-1.046l1.13-5.294h3.848l-.183.829h.008zm9.659-.837l-1.13 5.294h-1.008l.13-.598c-.443.437-1.038.675-1.748.675-1.146 0-1.894-.629-1.894-1.75 0-.199.023-.406.076-.636l.642-2.985h1.053l-.649 3.016c-.038.176-.053.33-.053.468 0 .683.405 1.02 1.153 1.02.84 0 1.519-.437 1.741-1.458l.657-3.046h1.046-.016zm4.284 3.108c0-1.796 1.382-3.185 3.482-3.185.97 0 1.757.307 2.154.883l-.764.598c-.305-.399-.794-.621-1.466-.621-1.451 0-2.352 1.02-2.352 2.263 0 .875.611 1.458 1.772 1.458.633 0 1.183-.2 1.611-.614l.618.622c-.55.59-1.367.852-2.306.852-1.726 0-2.749-.921-2.749-2.264v.008zm14.501-1.788c-.466-.276-.985-.438-1.588-.507l-.962 4.49h-1.054l.97-4.513a4.427 4.427 0 00-1.749.507l-.275-.768c.695-.398 1.665-.606 2.589-.606.985 0 1.863.223 2.527.637l-.466.76h.008zm10.064-1.32l-1.13 5.294h-1.008l.13-.598c-.443.437-1.039.675-1.749.675-1.145 0-1.893-.629-1.893-1.75 0-.199.022-.406.076-.636l.641-2.985h1.054l-.649 3.016c-.038.176-.053.33-.053.468 0 .683.404 1.02 1.153 1.02.84 0 1.519-.437 1.741-1.458l.656-3.046h1.047-.016zm7.659 2.578l1.436 2.716h-1.123l-1.183-2.24h-1.108l-.473 2.24h-1.054l1.13-5.294h1.054L171.818 28h1.023l2.1-2.218h1.183l-2.512 2.578zm11.576-.798c0 .2-.015.391-.061.614l-.626 2.908h-1.046l.282-1.358h-2.932l-.29 1.358h-1.038l.649-3.03c.328-1.574 1.328-2.341 2.871-2.341 1.367 0 2.191.683 2.191 1.857v-.008zm-1.267 1.335l.16-.782c.038-.177.054-.33.054-.476 0-.714-.443-1.067-1.245-1.067-.939 0-1.512.438-1.741 1.489l-.176.829h2.94l.008.007zM90.166 34L82.33 9.714h-1.359L73.138 34h17.036-.008zM80.774 4.427L67.51 34H39.379l39.47-29.573h1.925zM80.713 0L32.2 34H0L79.063 0h1.65z"/></g><defs><clipPath id="clip0_141_302"><path fill="#fff" d="M0 0h264.229v34H0z"/></clipPath></defs></svg>