<svg width="82" height="57" fill="none" xmlns="http://www.w3.org/2000/svg"><path d="M38 34a1 1 0 011-1h5a1 1 0 011 1v2.194a1 1 0 01-.283.697L42.667 39h-2.334l-2.05-2.109a1 1 0 01-.283-.697V34z" stroke="#fff" stroke-width="2"/><path d="M40 39l-2 17m5-17l2 17" stroke="#fff" stroke-width="2" stroke-linejoin="round"/><path d="M32.322 8.272A7 7 0 0139.317 1h4.366a7 7 0 016.995 7.272l-.36 9.246a8.825 8.825 0 01-17.636 0l-.36-9.246zm26.994 9.426A6.435 6.435 0 0165.745 11h2.51a6.435 6.435 0 016.43 6.698l-.253 6.168a7.438 7.438 0 01-14.864 0l-.252-6.168zm-36.632 0A6.435 6.435 0 0016.255 11h-2.51a6.435 6.435 0 00-6.43 6.698l.253 6.168a7.438 7.438 0 0014.864 0l.252-6.168z" stroke="#FFDB06" stroke-width="2"/><path d="M32 9.915c2.171.435 6.514-.783 6.514-3.915 0 2.088 3.981 3.915 5.972 3.915H51" stroke="#FFD500" stroke-width="2" stroke-linejoin="round"/><path d="M36.625 25v3.214l-9.495 1.392A6 6 0 0022 35.541V56h39V35.542a6 6 0 00-5.13-5.937l-9.495-1.39V25" stroke="#FFDB06" stroke-width="2"/><path d="M63.5 30v2.679l-3.5.582M70.5 30v2.679l5.506.936A6 6 0 0181 39.53V54a2 2 0 01-2 2H60M18.5 30v2.679l3.5.582M11.5 30v2.679l-5.506.936A6 6 0 001 39.53V54a2 2 0 002 2h19" stroke="#FFDB06" stroke-width="2"/></svg>