<svg width="82" height="58" fill="none" xmlns="http://www.w3.org/2000/svg"><path d="M18.297 1h34.595M18.297 57h45.406V10L52.892 1m0 0v9h9.73" stroke="#FFDB06" stroke-width="2"/><path d="M35.595 1h34.594M35.595 57H79a2 2 0 002-2V10L70.19 1m0 0v9h9.729" stroke="#FFDB06" stroke-width="2"/><path d="M35.595 1H3a2 2 0 00-2 2v52a2 2 0 002 2h43.405V10l-10.81-9zm0 0v9h9.73" stroke="#FFDB06" stroke-width="2"/><path stroke="#fff" stroke-width="2" d="M9.649 14h15.135M9.649 21h28.108M9.649 28h28.108M9.649 35h28.108M9.649 42h15.135"/></svg>