<svg width="82" height="58" fill="none" xmlns="http://www.w3.org/2000/svg"><path d="M28.5 9H3a2 2 0 00-2 2v44a2 2 0 002 2h76a2 2 0 002-2V11a2 2 0 00-2-2H53.5" stroke="#FFDB06" stroke-width="2"/><path d="M53 15V3a2 2 0 00-2-2H31a2 2 0 00-2 2v12" stroke="#fff" stroke-width="2"/><path d="M49 15V6a1 1 0 00-1-1H34a1 1 0 00-1 1v9" stroke="#fff" stroke-width="2"/><path d="M34 9h14" stroke="#FFD500" stroke-width="2"/><path d="M1 11v13l28 8h8m44-21v13l-28 8h-8" stroke="#FFDB06" stroke-width="2"/><mask id="a" fill="#fff"><rect x="37" y="27" width="8" height="10" rx="1"/></mask><rect x="37" y="27" width="8" height="10" rx="1" stroke="#fff" stroke-width="4" mask="url(#a)"/></svg>